HIERARCHY
ROOT Hips
{
	OFFSET 0.00000 0.00000 0.00000
	CHANNELS 6 Xposition Yposition Zposition Yrotation Zrotation Xrotation 
	JOINT Lumbar
	{
		OFFSET 0 0 0
		CHANNELS 3 Zrotation Xrotation Yrotation
		JOINT Neck
		{
			OFFSET 0.00 0.2701 0.00
			CHANNELS 3 Zrotation Xrotation Yrotation
			End Site
			{
				OFFSET 0.00 0.1379 0.00
			}
		}
		JOINT RightShoulder
		{
			OFFSET 0.0119 0.2289 0.1181
			CHANNELS 3 Zrotation Xrotation Yrotation
			JOINT RightElbow
			{
				OFFSET 0.00 -0.1475 0.00
				CHANNELS 2 Zrotation Yrotation
				JOINT RightWrist
				{
					OFFSET 0.00 -0.1605 0.00
					CHANNELS 2 Zrotation Xrotation
					End Site
					{
						OFFSET 0.0040 -0.1068 0.0006
					}
				}
			}
		}
		JOINT LeftShoulder
		{
			OFFSET 0.0119 0.2289 -0.1181
			CHANNELS 3 Zrotation Xrotation Yrotation
			JOINT LeftElbow
			{
				OFFSET 0.00 -0.1475 0.00
				CHANNELS 2 Zrotation Yrotation
				JOINT LeftWrist
				{
					OFFSET 0.00 -0.1605 0.00
					CHANNELS 2 Zrotation Xrotation
					End Site
					{
						OFFSET 0.0040 -0.1068 -0.0006
					}
				}
			}
		}
	}
	JOINT RightHip
	{
		OFFSET 0.0316 -0.0424 0.0458
		CHANNELS 3 Zrotation Xrotation Yrotation
		JOINT RightKnee
		{
			OFFSET 0.00 -0.2438 0.00
			CHANNELS 1 Zrotation
			JOINT RightAnkle
			{
				OFFSET 0.00 -0.2449 0.00
				CHANNELS 3 Zrotation Xrotation Yrotation
				End Site
				{
					OFFSET 0.1237 -0.0542 0.0051
				}
			}
		}
	}
	JOINT LeftHip
	{
		OFFSET 0.0316 -0.0424 -0.0458
		CHANNELS 3 Zrotation Xrotation Yrotation
		JOINT LeftKnee
		{
			OFFSET 0.00 -0.2438 0.00
			CHANNELS 1 Zrotation
			JOINT LeftAnkle
			{
				OFFSET 0.00 -0.2449 0.00
				CHANNELS 3 Zrotation Xrotation Yrotation
				End Site
				{
					OFFSET 0.1237 -0.0542 -0.0051
				}
			}
		}
	}
}
MOTION
Frames: 23
Frame Time: 0.02
0 0.57926 -0 183.76199 0 -3.65153 2.10446 3.03849 -3.08713 -46.172 3.43909 1.992 -11.65906 -70.5477 -87.14688 29.17734 77.92886 -22.78335 -2.73624 -3.25278 70.65125 80.07519 24.12761 -69.83602 -33.67783 1.56524 -5.46099 1.17828 2.31257 -5.48421 -1.40461 -2.84655 -6.3096 -2.35484 7.56062 -2.73049 -7.72403 6.29671 1.83644 0.83087
2e-05 0.57926 1e-05 183.73883 0 -3.6535 2.10234 3.03841 -3.09303 -46.13121 3.44511 1.99832 -11.635 -70.55734 -87.14688 29.18975 77.9733 -22.75478 -2.71249 -3.24264 70.61508 80.06555 24.11922 -69.88759 -33.64269 1.57079 -5.45555 1.17634 2.31845 -5.48214 -1.4073 -2.84333 -6.2925 -2.3608 7.56027 -2.71962 -7.7186 6.29744 1.84828 0.84285
4e-05 0.57926 1e-05 183.71584 0 -3.65545 2.10025 3.03833 -3.09893 -46.09062 3.4511 2.00463 -11.61094 -70.56694 -87.14688 29.20199 78.01798 -22.72609 -2.68879 -3.23223 70.57918 80.0556 24.11089 -69.93889 -33.60781 1.57629 -5.45015 1.17445 2.3248 -5.48008 -1.40994 -2.84016 -6.2761 -2.36674 7.55993 -2.70876 -7.71317 6.29816 1.86001 0.85467
6e-05 0.57926 2e-05 183.69337 0 -3.65737 2.09825 3.03826 -3.1048 -46.05039 3.45702 2.0109 -11.58736 -70.57643 -87.14688 29.21338 78.06282 -22.69732 -2.66569 -3.22091 70.54409 80.04433 24.10267 -69.98952 -33.5737 1.58165 -5.44491 1.17272 2.33362 -5.478 -1.41242 -2.8371 -6.26292 -2.37263 7.55962 -2.69776 -7.7077 6.29883 1.87143 0.86593
8e-05 0.57926 3e-05 183.6682 0 -3.6595 2.09576 3.03814 -3.11074 -46.00821 3.4633 2.01733 -11.56204 -70.58648 -87.14688 29.22895 78.10538 -22.66981 -2.64018 -3.21472 70.5048 80.04009 24.09381 -70.04362 -33.53558 1.58773 -5.43884 1.17017 2.32996 -5.47599 -1.41577 -2.83338 -6.23341 -2.37879 7.55916 -2.68739 -7.70244 6.29975 1.88448 0.88014
0.0001 0.57926 3e-05 183.64875 0 -3.66118 2.09432 3.03813 -3.11658 -45.97021 3.46882 2.02342 -11.5399 -70.59536 -87.14688 29.2359 78.15368 -22.63906 -2.61926 -3.19748 70.47436 80.02093 24.08634 -70.0904 -33.50597 1.59231 -5.43453 1.16932 2.3523 -5.47385 -1.41728 -2.8311 -6.23799 -2.38436 7.559 -2.67576 -7.69678 6.30015 1.89407 0.88813
0.0001 0.57926 4e-05 183.64533 0 -3.66162 2.09566 3.03832 -3.12197 -45.94295 3.47208 2.02887 -11.53099 -70.60096 -87.14688 29.21612 78.21095 -22.60349 -2.61584 -3.14989 70.46912 79.9591 24.08231 -70.11674 -33.49988 1.59249 -5.43528 1.1736 2.45332 -5.47116 -1.41352 -2.83251 -6.34442 -2.3885 7.55976 -2.6598 -7.68949 6.29884 1.89391 0.87808
0.0001 0.57926 4e-05 183.64766 0 -3.66161 2.09806 3.03866 -3.12731 -45.92 3.47458 2.03395 -11.5247 -70.60541 -87.14688 29.18808 78.27481 -22.56404 -2.61643 -3.09115 70.47267 79.88243 24.07973 -70.13575 -33.50236 1.59119 -5.43779 1.17952 2.57951 -5.46835 -1.40793 -2.83542 -6.48405 -2.39201 7.56079 -2.64269 -7.6819 6.29705 1.89026 0.86188
0.0001 0.57926 5e-05 183.64719 0 -3.66179 2.10006 3.03899 -3.13281 -45.89559 3.47754 2.03904 -11.51396 -70.61041 -87.14688 29.16578 78.3409 -22.52338 -2.61172 -3.03721 70.47169 79.81341 24.07676 -70.15833 -33.50087 1.59076 -5.43939 1.18443 2.68974 -5.46571 -1.40331 -2.83784 -6.60351 -2.39567 7.56163 -2.62666 -7.67479 6.29564 1.88831 0.84906
0.0001 0.57925 5e-05 183.64747 0 -3.662 2.10174 3.03904 -3.13776 -45.86918 3.48007 2.04481 -11.51595 -70.61522 -87.14688 29.13537 78.38716 -22.49447 -2.62064 -2.98399 70.47295 79.74052 24.07273 -70.18 -33.49971 1.58954 -5.44142 1.19046 2.81876 -5.46263 -1.39811 -2.83944 -6.74407 -2.39987 7.56274 -2.60832 -7.66624 6.29355 1.8859 0.83385
0.0001 0.57925 6e-05 183.64759 0 -3.66206 2.1043 3.03976 -3.14382 -45.84785 3.48326 2.04908 -11.49334 -70.62023 -87.14688 29.11955 78.47347 -22.44119 -2.60344 -2.92711 70.47167 79.67226 24.07117 -70.20169 -33.4999 1.58956 -5.44301 1.19457 2.91498 -5.46039 -1.39369 -2.84309 -6.84899 -2.40282 7.56335 -2.59447 -7.66058 6.29275 1.88362 0.82209
9e-05 0.57925 6e-05 183.64559 0 -3.66185 2.10936 3.04196 -3.153 -45.84037 3.48878 2.04928 -11.39116 -70.62547 -87.14687 29.14911 78.69348 -22.31331 -2.50167 -2.85918 70.46082 79.61994 24.07668 -70.22646 -33.50183 1.59373 -5.44279 1.19287 2.91145 -5.46087 -1.39172 -2.85225 -6.84368 -2.40233 7.56253 -2.59382 -7.66341 6.29591 1.88259 0.82189
9e-05 0.57925 7e-05 183.64326 0 -3.66152 2.11518 3.0449 -3.16327 -45.8377 3.49491 2.04798 -11.26627 -70.63103 -87.14686 29.19317 78.94922 -22.16306 -2.3755 -2.78889 70.44716 79.5731 24.08455 -70.25131 -33.50487 1.59915 -5.4421 1.18921 2.87456 -5.46215 -1.39063 -2.86338 -6.80196 -2.40061 7.5612 -2.59763 -7.66909 6.30034 1.88179 0.82528
9e-05 0.57924 8e-05 183.64126 0 -3.66124 2.12043 3.04774 -3.173 -45.83227 3.50055 2.0474 -11.15888 -70.6369 -87.14685 29.22844 79.17208 -22.02785 -2.26814 -2.72177 70.43508 79.52378 24.09086 -70.27531 -33.50723 1.60374 -5.44176 1.18655 2.85505 -5.46283 -1.38923 -2.87347 -6.77946 -2.39954 7.56009 -2.59906 -7.67315 6.30401 1.88085 0.82669
8e-05 0.57924 9e-05 183.63874 0 -3.66096 2.12672 3.04957 -3.18293 -45.82943 3.5071 2.0467 -11.02089 -70.64097 -87.14683 29.27227 79.46435 -21.86992 -2.12876 -2.64437 70.42213 79.47299 24.09909 -70.30239 -33.51032 1.60931 -5.44093 1.18349 2.82733 -5.46448 -1.38734 -2.88425 -6.74721 -2.3981 7.55906 -2.60195 -7.67848 6.30844 1.87996 0.82937
8e-05 0.57924 0.0001 183.6371 0 -3.66066 2.13096 3.0537 -3.19268 -45.82229 3.51189 2.04587 -10.9417 -70.64868 -87.14683 29.30235 79.62178 -21.75658 -2.04968 -2.58928 70.4101 79.42792 24.10412 -70.3233 -33.51241 1.61323 -5.44094 1.18076 2.80811 -5.46434 -1.38675 -2.89399 -6.72569 -2.39711 7.55772 -2.60286 -7.68195 6.3116 1.87905 0.83036
8e-05 0.57924 0.00012 183.63856 0 -3.66046 2.12964 3.06395 -3.20181 -45.80205 3.51191 2.04527 -11.02577 -70.6682 -87.14683 29.28624 79.38728 -21.74964 -2.14761 -2.58475 70.40196 79.38719 24.09748 -70.32609 -33.50804 1.61175 -5.44383 1.17967 2.82337 -5.45862 -1.38918 -2.90076 -6.74691 -2.39807 7.55576 -2.59727 -7.67869 6.31096 1.87805 0.82555
9e-05 0.57924 0.00015 183.6408 0 -3.66025 2.12617 3.0765 -3.2107 -45.77738 3.51011 2.0446 -11.17034 -70.69105 -87.14685 29.25666 79.01827 -21.79216 -2.30608 -2.60475 70.39458 79.35391 24.08795 -70.32292 -33.50311 1.60867 -5.4475 1.17894 2.84769 -5.45116 -1.39294 -2.90633 -6.77926 -2.39947 7.5535 -2.58954 -7.6736 6.309 1.87703 0.81902
9e-05 0.57924 0.00017 183.64229 0 -3.66 2.12347 3.08808 -3.21956 -45.75466 3.50895 2.0438 -11.29064 -70.71115 -87.14686 29.23638 78.71738 -21.82704 -2.434 -2.62144 70.38645 79.32403 24.08124 -70.32321 -33.50073 1.60671 -5.45052 1.17789 2.86582 -5.44479 -1.39634 -2.9122 -6.80355 -2.4004 7.55132 -2.58273 -7.66998 6.30766 1.876 0.81347
9e-05 0.57924 0.00019 183.64546 0 -3.65994 2.12165 3.09941 -3.22895 -45.7321 3.50849 2.04351 -11.39778 -70.73643 -87.14687 29.2033 78.38644 -21.79995 -2.57438 -2.60584 70.38024 79.26601 24.06831 -70.3203 -33.48909 1.6032 -5.45474 1.17742 2.89146 -5.4372 -1.39877 -2.9192 -6.83913 -2.40241 7.54936 -2.57625 -7.66387 6.30631 1.87504 0.80714
0.0001 0.57924 0.00022 183.64533 0 -3.65948 2.1175 3.11172 -3.23726 -45.70843 3.50629 2.0423 -11.54541 -70.75176 -87.14688 29.19332 78.0879 -21.91217 -2.70287 -2.66226 70.36985 79.2679 24.06755 -70.32266 -33.49609 1.60246 -5.45667 1.17587 2.90414 -5.43173 -1.40348 -2.92351 -6.85448 -2.40233 7.54689 -2.56859 -7.66236 6.30463 1.87394 0.80206
0.00012 0.57925 0.00023 183.63574 0 -3.65783 2.10719 3.12694 -3.24204 -45.67993 3.49812 2.03757 -11.80357 -70.73831 -87.14688 29.25206 77.89201 -22.41228 -2.78954 -2.92075 70.35121 79.43675 24.10164 -70.34087 -33.55893 1.6102 -5.45205 1.17099 2.87825 -5.43252 -1.41464 -2.9208 -6.80974 -2.39601 7.5428 -2.55745 -7.67494 6.30241 1.87228 0.80019
0.00015 0.57926 0.00025 183.62285 0 -3.65579 2.09462 3.14291 -3.24598 -45.65097 3.48844 2.03221 -12.09781 -70.71469 -87.14688 29.33425 77.73651 -23.04779 -2.86136 -3.24901 70.32771 79.66487 24.14797 -70.36462 -33.63966 1.62069 -5.44509 1.16506 2.83932 -5.43551 -1.42794 -2.91539 -6.74474 -2.38763 7.53827 -2.54531 -7.69205 6.29987 1.87051 0.79973
